<svg xmlns="http://www.w3.org/2000/svg" width="12" height="12" viewBox="0 0 12 12">
    <path fill="#000" fill-opacity=".7" fill-rule="nonzero" d="M6 0C2.692 0 0 2.692 0 6s2.692 6 6 6 6-2.692 6-6-2.692-6-6-6zm2.375 7.988a.275.275 0 0 1 0 .387.28.28 0 0 1-.193.08.28.28 0 0 1-.194-.08L6 6.387 4.012 8.375a.28.28 0 0 1-.194.08.28.28 0 0 1-.193-.08.275.275 0 0 1 0-.387L5.613 6 3.625 4.012a.275.275 0 0 1 0-.387.275.275 0 0 1 .387 0L6 5.613l1.988-1.988a.275.275 0 0 1 .387 0 .275.275 0 0 1 0 .387L6.387 6l1.988 1.988z"/>
</svg>
