<svg xmlns="http://www.w3.org/2000/svg" width="27" height="28" viewBox="0 0 27 28">
    <path fill="#ED2E79" fill-rule="nonzero" d="M15.889.883a.259.259 0 0 0-.034.017L.447 3.765a.542.542 0 0 0-.447.54v20.123a.542.542 0 0 0 .447.54l15.408 2.865a.56.56 0 0 0 .45-.112.54.54 0 0 0 .203-.41v-2.697h9.354c.602 0 1.101-.49 1.101-1.08V5.199c0-.59-.499-1.079-1.1-1.079h-9.355V1.422a.53.53 0 0 0-.185-.406.56.56 0 0 0-.434-.133zm-.482 1.18v2.343a.535.535 0 0 0 0 .472v19.095a.537.537 0 0 0 0 .22v2.477L1.101 23.99V4.743l14.306-2.68zm1.101 3.135h9.354v18.337h-9.354v-2.697h2.201V19.76h-2.201v-3.236h2.201v-1.079h-2.201v-2.697h2.201V11.67h-2.201V8.973h2.201V7.894h-2.201V5.198zm3.302 2.696v1.08h4.402v-1.08H19.81zM3.68 9.344l3.01 5.04-3.285 5.038h2.751l1.788-3.252a5.32 5.32 0 0 0 .241-.708h.017c.071.328.14.552.207.674l1.788 3.286h2.734l-3.164-5.09 3.078-4.988h-2.58l-1.633 2.983c-.157.39-.268.697-.326.893h-.018a5.052 5.052 0 0 0-.31-.86L6.5 9.345H3.68zm16.13 2.326v1.078h4.402V11.67H19.81zm0 3.775v1.079h4.402v-1.079H19.81zm0 4.315v1.078h4.402V19.76H19.81z"/>
</svg>
