<svg xmlns="http://www.w3.org/2000/svg" width="22" height="12" viewBox="0 0 22 12">
    <path fill="#3F414D" fill-rule="nonzero" d="M8.692 0C4.308 1.29 1.11 5.284.951 5.486a.519.519 0 0 0 0 .626C1.14 6.352 5.65 12 11.345 12 17.04 12 21.55 6.352 21.74 6.112a.519.519 0 0 0 0-.626C21.581 5.284 18.382 1.29 14 0c1.297.94 2.16 2.542 2.16 4.368 0 2.897-2.155 5.247-4.814 5.247-2.658 0-4.812-2.35-4.814-5.247C6.53 2.542 7.394.939 8.692 0zm2.653 1.983c-1.208 0-2.188 1.067-2.188 2.385 0 1.317.98 2.385 2.188 2.385 1.21 0 2.189-1.068 2.189-2.385 0-1.318-.98-2.385-2.189-2.385z" opacity=".5"/>
</svg>
