<svg xmlns="http://www.w3.org/2000/svg" width="45" height="34" viewBox="0 0 45 34">
    <defs>
        <linearGradient id="a" x1="0%" y1="50%" y2="50%">
            <stop offset="0%" stop-color="#FFC6E6"/>
            <stop offset="100%" stop-color="#FC2779"/>
        </linearGradient>
        <linearGradient id="b" x1="78.389%" x2="27.397%" y1="50%" y2="50%">
            <stop offset="0%" stop-color="#FE4FB1"/>
            <stop offset="100%" stop-color="#FC2779"/>
        </linearGradient>
    </defs>
    <g fill="none" fill-rule="evenodd">
        <g fill-rule="nonzero">
            <path fill="url(#a)" d="M44.856 3.156v27.688c0 1.743-1.668 3.156-3.726 3.156-.988 0-1.935-.333-2.634-.924L5.813 5.388c-1.455-1.233-1.455-3.231 0-4.464C6.51.333 7.459 0 8.447 0H41.13c2.058 0 3.726 1.413 3.726 3.156z" transform="matrix(1 0 0 -1 0 34)"/>
            <path fill="url(#b)" d="M44.856 4.063v26.874c0 1.692-1.648 3.063-3.68 3.063-.977 0-1.913-.323-2.603-.897L0 1h41.175c2.033 0 3.68 1.371 3.68 3.063z" transform="rotate(-180 22.428 17.5)"/>
        </g>
        <path fill="#FFF" d="M10.91 21.823s-1.857 3.498-2.453 4.736C7.86 27.797 7.5 28 6.687 28c-.814 0-.83-.428-.758-.705.073-.278 3.125-5.7 3.125-5.7s1.806-3.189 2.235-3.729c.429-.54.896-.705 1.452-.472.555.232.254 1.986.095 3.345-.16 1.359-.088 2.047-.088 2.047l1.956-3.28s1.034-1.854 1.455-2.225c.421-.371 1.055-.306 1.33-.192.273.114.311.231-.015.77s-1.842 2.997-1.842 2.997-.555.849-1.676 2.905c-1.12 2.057-1.707 3.532-1.707 3.532s-.292.682-1 .682c-.707 0-.804-.472-.733-1.128.07-.655.393-5.024.393-5.024z"/>
    </g>
</svg>
