<svg xmlns="http://www.w3.org/2000/svg" width="114" height="38" viewBox="0 0 114 38">
    <path fill="#FC2779" fill-rule="evenodd" d="M13.904 16.412s-5.155 11.826-6.81 16.01c-1.656 4.185-2.653 4.87-4.913 4.87-2.26 0-2.306-1.445-2.105-2.383.2-.938 8.675-19.264 8.675-19.264s5.014-10.782 6.206-12.606c1.191-1.825 2.489-2.383 4.032-1.598 1.543.785.707 6.715.263 11.308-.443 4.593-.242 6.918-.242 6.918L24.44 8.581s2.871-6.265 4.04-7.52c1.17-1.256 2.93-1.034 3.69-.649.76.386.867.78-.04 2.602-.905 1.821-5.113 10.129-5.113 10.129s-1.542 2.87-4.654 9.822c-3.112 6.952-4.74 11.937-4.74 11.937s-.813 2.306-2.777 2.306c-1.965 0-2.233-1.596-2.036-3.812.197-2.215 1.093-16.984 1.093-16.984zm20.82-13.81S36.107.14 37.873.14s1.975 1.245 1.414 2.5c-.56 1.256-3.574 7.564-3.574 7.564s-1.488 3.476 1.255 3.476 6.069-6.825 7.792-9.747C46.484 1.012 47.537.176 48.794.176c1.258 0 3.165.86 1.583 3.797-1.583 2.936-5.305 8.501-5.305 8.501s-4.592 7.48-7.47 13.16c-2.878 5.678-1.763 3.104-3.476 6.902-1.713 3.799-3.28 4.738-4.547 4.738-1.266 0-2.547-.924-2.015-2.594.53-1.67 4.885-8.526 4.885-8.526s4.052-6.031 4.052-7.262c0-1.231-2.21-.46-3.672-.46-1.461 0-3.541-.28-3.541-3.44s5.436-12.39 5.436-12.39zm15.193 16.502s-2.3 4.128-5.1 10.837c-2.798 6.71-4.293 7.3-6.083 7.3s-2.325-1.174-2.051-2.272c.274-1.097 5.704-12.362 5.704-12.362s4.66-8.623 7.604-13.439C52.935 4.353 55.446 0 58.965 0c3.52 0 1.317 3.207 0 5.136-1.316 1.93-4.692 6.411-4.692 6.411s2.524-1.225 7.419-4.975c4.894-3.75 8.017-6.56 10.001-6.56 1.985 0 2.687 1.737 2.687 1.737s.847.74-2.19 2.781c-3.038 2.042-9.506 6.641-12.672 8.389-3.166 1.747-5.22 3.674-5.22 4.085 0 .412.086 1.227 1.262 3.907 1.175 2.68 3.34 7.84 3.506 7.84.165 0 6.115-8.804 6.115-8.804S75.71 5.025 78.147 2.567C80.587.11 81.68.155 82.371.155c.692 0 2.274-.162 2.274 2.543 0 2.704-2.097 15.98-2.097 15.98l4.103-.921 6.216-14.81S93.94.236 96.552.236c2.611 0 3.3 1.1 3.3 2.697s.471 12.096.471 12.096l9.817-1.903s2.927-.534 2.927 1.816-.506 2.56-2.447 2.917c-1.94.357-10.027 1.467-10.027 1.467s-.13 1.585.248 5.89c.378 4.304.905 6.875.905 9.273 0 2.397-3.6 2.45-3.6 2.45s-2.259.657-2.48-3.51c-.22-4.166-.225-13.23-.225-13.23l-5.198.972s-1.253 3.944-1.952 7.13c-.7 3.185-1.556 8.692-4.587 8.692-3.03 0-2.175-3.015-1.5-5.523.675-2.509 2.914-9.367 2.914-9.367l-3.142.632s-.373 1.463-.793 4.207c-.421 2.744-.454 8.874-3.2 9.61-2.746.735-3.904.05-3.904-2.516s2.023-9.94 2.023-9.94l-10.09 1.791s-3.147 6.204-4.877 8.983c-1.73 2.779-2.65 2.451-4.265 2.451-1.614 0-2.643-3.59-3.764-7.399-1.122-3.81-3.19-10.818-3.19-10.818zm41.417-2.342l4.297-.91-.462-9.555-3.835 10.465zm-22.54 4.952l7.9-1.675 2.024-12.064-9.923 13.74z"/>
</svg>
