<svg xmlns="http://www.w3.org/2000/svg" width="24" height="21" viewBox="0 0 24 21">
    <path fill="#0A0409" fill-rule="nonzero" d="M11.94 0c-1.923 0-3.482 1.524-3.482 3.403 0 1.88 1.559 3.403 3.482 3.403 1.924 0 3.483-1.524 3.483-3.403 0-1.88-1.56-3.403-3.483-3.403zM4.478 2.917c-1.374 0-2.488 1.088-2.488 2.43 0 1.343 1.114 2.431 2.488 2.431.66 0 1.292-.256 1.759-.712a2.403 2.403 0 0 0 .728-1.718c0-.645-.262-1.263-.728-1.72a2.517 2.517 0 0 0-1.76-.711zM11.94 8.75c-2.324 0-6.965 1.14-6.965 3.403v3.403h7.057c.478 2.749 2.934 4.861 5.878 4.861 3.284 0 5.97-2.625 5.97-5.834 0-3.208-2.686-5.833-5.97-5.833-.9 0-1.753.201-2.52.554-1.224-.363-2.521-.554-3.45-.554zM3.88 9.774C2.306 10.011 0 11.074 0 12.353v3.204h2.985v-3.403c0-.935.344-1.719.894-2.38zm14.031.921c2.19 0 3.98 1.75 3.98 3.89 0 2.138-1.79 3.888-3.98 3.888-2.189 0-3.98-1.75-3.98-3.889s1.791-3.889 3.98-3.889zm.896 1.166l-1.692 2.82 2.19 2.14.896-.972-1.493-1.362 1.193-2.041-1.094-.585z"/>
</svg>
