<svg xmlns="http://www.w3.org/2000/svg" width="19" height="19" viewBox="0 0 19 19">
    <path fill="#BFC5D2" fill-rule="nonzero" d="M13.99 0c-.327 0-.713.058-1.24.18-1.326.303-9.104 2.17-9.22 2.199-1.154.377-1.884.747-2.342 1.183a3.727 3.727 0 0 1 1.901-.514h12.348V1.77c0-.618-.005-1.769-1.447-1.769zM2.714 4.75C1.032 4.75 0 6.26 0 7.34v9.231C0 17.909 1.143 19 2.545 19h13.91C17.857 19 19 17.909 19 16.571V7.273c0-1.32-1.294-2.523-2.714-2.523H2.714zm12.723 5.938a1.187 1.187 0 1 1 0 2.374 1.187 1.187 0 0 1 0-2.374z"/>
</svg>
